HIERARCHY
ROOT Hips
{
	OFFSET	0.00	0.00	0.00
	CHANNELS 6 Xposition Yposition Zposition Zrotation Xrotation Yrotation
	JOINT Spine
	{
		OFFSET	 0.00	0.01	 0.00
		CHANNELS 3 Zrotation Xrotation Yrotation
		JOINT Spine1
		{
			OFFSET	 0.00	 2.45913012437421	 0.00
			CHANNELS 3 Zrotation Xrotation Yrotation
            JOINT Neck
            {
                OFFSET	 0.00	 2.48462964506057	 0.00
                CHANNELS 3 Zrotation Xrotation Yrotation
                JOINT Head
                {
                    OFFSET	 0.00	 0.927524780924562	 0.00
                    CHANNELS 3 Zrotation Xrotation Yrotation
                    End Site 
                    {
                        OFFSET	 0.00	 1.14999962169752	 0.00
                    }
                }
            }
			JOINT LeftShoulder
			{
				OFFSET	 0.00	 2.48462964506057	 0.00
				CHANNELS 3 Zrotation Xrotation Yrotation
				JOINT LeftUpArm
				{
					OFFSET	 0.00	 1.24881979654096	 0.00
					CHANNELS 3 Zrotation Xrotation Yrotation
					JOINT LeftForeArm
					{
						OFFSET	 0.00	2.59758046908119	 0.00
						CHANNELS 3 Zrotation Xrotation Yrotation
						JOINT LeftHand
						{
							OFFSET	 0.00	2.45542024364365	 0.00
							CHANNELS 3 Zrotation Xrotation Yrotation
							JOINT LeftHandThumb 
							{
								OFFSET	 0.00	0.00	 0.00
								CHANNELS 3 Zrotation Xrotation Yrotation
								End Site
								{
									OFFSET	 0.00	0.00	1.00000003353624
								}
							}
							JOINT L_Wrist_End 
							{
								OFFSET	 0.00	0.99999967115358	 0.00
								CHANNELS 3 Zrotation Xrotation Yrotation
								End Site 
								{
									OFFSET	 0.00	 0.00	 0.00
								}
							}
						}
					}
				}
			}
			JOINT RightShoulder
			{
				OFFSET	 0.00	 2.48462964506057	 0.00
				CHANNELS 3 Zrotation Xrotation Yrotation
				JOINT RightUpArm
				{
					OFFSET	 0.00	 1.24881979654096	 0.00
					CHANNELS 3 Zrotation Xrotation Yrotation
					JOINT RightForeArm
					{
						OFFSET	 0.00	2.59758046908119	 0.00
						CHANNELS 3 Zrotation Xrotation Yrotation
						JOINT RightHand
						{
							OFFSET	 0.00	2.45542024364365	 0.00
							CHANNELS 3 Zrotation Xrotation Yrotation
							JOINT RightHandThumb 
							{
								OFFSET	 0.00	0.00	 0.00
								CHANNELS 3 Zrotation Xrotation Yrotation
								End Site
								{
									OFFSET	 0.00	0.00	1.00000003353624
								}
							}
							JOINT R_Wrist_End 
							{
								OFFSET	 0.00	0.99999967115358	 0.00
								CHANNELS 3 Zrotation Xrotation Yrotation
								End Site 
								{
									OFFSET	 0.00	 0.00	 0.00
								}
							}
						}
					}
				}
			}
		}
	}
	JOINT LeftUpLeg
	{
		OFFSET	 1.2719394002717	 0.00	 0.00
		CHANNELS 3 Zrotation Xrotation Yrotation
		JOINT LeftLowLeg
		{
			OFFSET	 0.00	-4.3429100912261	 0.00
			CHANNELS 3 Zrotation Xrotation Yrotation
			JOINT LeftFoot
			{
				OFFSET	 0.00	-4.48767017425826	 0.00
				CHANNELS 3 Zrotation Xrotation Yrotation
				JOINT LeftToeBase
                {
                    OFFSET	 0.00	0.00	 1.51507020887566
                    CHANNELS 3 Zrotation Xrotation Yrotation
                    End Site 
                    {
                        OFFSET	 0.00	0.00	 0.75000010571191
                    }
                }
			}
		}
	}
	JOINT RightUpLeg
	{
		OFFSET	 -1.2719393604653	 0.00	 0.00
		CHANNELS 3 Zrotation Xrotation Yrotation
		JOINT RightLowLeg
		{
			OFFSET	 0.00	-4.3429100912261	 0.00
			CHANNELS 3 Zrotation Xrotation Yrotation
			JOINT RightFoot
			{
				OFFSET	 0.00	-4.48767017425826	 0.00
				CHANNELS 3 Zrotation Xrotation Yrotation
				JOINT RightToeBase
                {
                    OFFSET	 0.00	0.00	 1.51507020887566
                    CHANNELS 3 Zrotation Xrotation Yrotation
                    End Site 
                    {
                        OFFSET	 0.00	0.00	 0.749999965609858
                    }
                }   
			}
		}
	}
}
MOTION 
Frames:	20 
Frame Time: 0.02 
 -0.7818620300292969 -3.0180499267578127 10.496400146484374 -111.932 84.1569 112.089 3.67144 -20.9645 -3.89289 3.79236 31.3428 1.37961 -3.40257 25.0074 -1.21626 23.2054 -76.5388 16.0303 -122.9625 0.0103661 -5.89742 -35.3257 0.130667 29.1094 0.0 30.9246 0.0 10.4859 -7.66882 -0.296231 0.0 0.0 0.0 0.0 0.0 0.0 116.4928 -2.60292 2.37154 40.8234 2.70284 -19.8569 0.0 27.376 0.0 -6.10421 -2.21209 7.79294 0.0 0.0 0.0 0.0 0.0 0.0 7.73354 6.30606 23.9495 0.0 -1.13892 0.0 -9.5878 11.35545 5.22097 0.0 -11.28873 0.0 7.31114 3.94453 1.08968 0.0 4.78186 0.0 21.5664 8.30439 -28.9572 0.0 -12.68011 0.0 
  -0.7796009826660156 -3.0206500244140626 10.496099853515625 -111.769 84.169 111.853 3.71248 -20.9844 -3.85852 3.75024 31.3378 1.36224 -3.3802 25.067 -1.21549 23.2235 -76.5007 16.0518 -122.9262 0.0227249 -5.91684 -35.3219 0.0883963 29.1613 0.0 30.9984 0.0 10.4595 -7.74018 -0.318653 0.0 0.0 0.0 0.0 0.0 0.0 116.5371 -2.63725 2.36121 40.7797 2.70891 -19.8847 0.0 27.4771 0.0 -6.18146 -2.16385 7.69397 0.0 0.0 0.0 0.0 0.0 0.0 7.71351 6.34778 24.0153 0.0 -1.10709 0.0 -9.58037 11.3213005 5.22455 0.0 -11.2946205 0.0 7.29196 3.94568 1.19258 0.0 4.85056 0.0 21.5636 8.25275 -28.9775 0.0 -12.6636 0.0 
  -0.7768659973144532 -3.024110107421875 10.49510009765625 -111.647 84.1763 111.66 3.77191 -21.0294 -3.81524 3.68969 31.3384 1.32803 -3.32684 25.1438 -1.24851 23.1983 -76.4647 16.0587 -122.8854 0.0177394 -5.90983 -35.3251 0.0723906 29.1827 0.0 31.0275 0.0 10.457 -7.70159 -0.384951 0.0 0.0 0.0 0.0 0.0 0.0 116.5874 -2.66456 2.34145 40.7534 2.70211 -19.7976 0.0 27.594 0.0 -6.17706 -2.14058 7.62943 0.0 0.0 0.0 0.0 0.0 0.0 7.68935 6.40375 24.0428 0.0 -1.10269 0.0 -9.60295 11.264481 5.24696 0.0 -11.297791 0.0 7.27162 3.98115 1.25906 0.0 4.84885 0.0 21.5838 8.22282 -28.9741 0.0 -12.68251 0.0 
  -0.7741349792480469 -3.027449951171875 10.494300537109375 -111.572 84.1828 111.515 3.79305 -21.0925 -3.82195 3.6753 31.3729 1.28657 -3.34721 25.2079 -1.21074 23.2504 -76.4355 16.1198 -122.8884 -0.00344306 -5.9424 -35.3186 0.0572771 29.1961 0.0 31.0467 0.0 10.5008 -7.70528 -0.379999 0.0 0.0 0.0 0.0 0.0 0.0 116.6192 -2.66384 2.31926 40.7063 2.73125 -19.7627 0.0 27.7115 0.0 -6.19765 -2.27157 7.55957 0.0 0.0 0.0 0.0 0.0 0.0 7.6583 6.47236 24.0171 0.0 -1.13564 0.0 -9.62698 11.21829 5.3154 0.0 -11.2824 0.0 7.25119 4.02523 1.33085 0.0 4.81883 0.0 21.5574 8.21646 -28.9867 0.0 -12.6674595 0.0 
  -0.7721309661865234 -3.029230041503906 10.493800048828126 -111.641 84.1753 111.51 3.8051 -21.1438 -3.83539 3.68699 31.3864 1.26188 -3.37766 25.2706 -1.18179 23.2917 -76.4342 16.1536 -122.9712 -0.0145194 -5.96989 -35.2016 -0.00632305 29.2773 0.0 31.176 0.0 10.6015 -7.80177 -0.413247 0.0 0.0 0.0 0.0 0.0 0.0 116.6054 -2.63086 2.2784 40.7053 2.75679 -19.7109 0.0 27.7168 0.0 -6.208 -2.24675 7.54751 0.0 0.0 0.0 0.0 0.0 0.0 7.63672 6.5206 24.0296 0.0 -1.18312 0.0 -9.65127 11.19495 5.34853 0.0 -11.26123 0.0 7.24048 4.04369 1.3872 0.0 4.78309 0.0 21.5378 8.22206 -28.9825 0.0 -12.62801 0.0 
  -0.7697560119628907 -3.0339199829101564 10.49300048828125 -111.498 84.1764 111.328 3.80431 -21.2149 -3.86815 3.70657 31.4083 1.22809 -3.33025 25.2945 -1.2317 23.11 -76.3705 15.9706 -122.9421 -0.0138001 -5.98389 -35.2979 0.0137611 29.1751 0.0 30.9927 0.0 10.5563 -7.67716 -0.464706 0.0 0.0 0.0 0.0 0.0 0.0 116.5893 -2.6271 2.28078 40.7362 2.74257 -19.6464 0.0 27.6918 0.0 -6.17996 -2.23014 7.96131 0.0 0.0 0.0 0.0 0.0 0.0 7.60724 6.62232 23.992 0.0 -1.27963 0.0 -9.71629 11.16885 5.38645 0.0 -11.21027 0.0 7.22718 4.13571 1.33785 0.0 4.68064 0.0 21.5354 8.27104 -28.9184 0.0 -12.69986 0.0 
  -0.7673789978027343 -3.0377398681640626 10.49219970703125 -111.294 84.1816 111.042 3.84617 -21.2518 -3.82531 3.66505 31.4207 1.22134 -3.3517 25.3918 -1.17908 23.4285 -76.4299 16.2707 -122.9123 -0.00639861 -6.01286 -35.3375 -0.000799986 29.1017 0.0 30.9636 0.0 10.5168 -7.74388 -0.397175 0.0 0.0 0.0 0.0 0.0 0.0 116.6236 -2.65466 2.30795 40.7473 2.73969 -19.6292 0.0 27.6665 0.0 -6.14356 -2.2585 7.95392 0.0 0.0 0.0 0.0 0.0 0.0 7.56402 6.75212 24.0509 0.0 -1.40839 0.0 -9.73172 11.18389 5.3861 0.0 -11.2227 0.0 7.21197 4.2239 1.37491 0.0 4.58946 0.0 21.4597 8.307779 -28.9121 0.0 -12.63516 0.0 
  -0.7645339965820312 -3.0417800903320313 10.491199951171875 -111.169 84.183 110.851 3.91705 -21.292 -3.75906 3.58132 31.4088 1.19525 -3.28418 25.4484 -1.20671 23.5637 -76.4355 16.4257 -122.8647 0.001067 -6.02005 -35.3558 -0.0184185 29.0889 0.0 30.9104 0.0 10.4947 -7.72273 -0.307108 0.0 0.0 0.0 0.0 0.0 0.0 116.675 -2.661 2.33378 40.7642 2.67347 -19.5744 0.0 27.7011 0.0 -6.097 -2.31125 7.75592 0.0 0.0 0.0 0.0 0.0 0.0 7.51377 6.88209 24.1049 0.0 -1.56618 0.0 -9.75319 11.208509 5.38352 0.0 -11.1903305 0.0 7.19481 4.30564 1.37478 0.0 4.4984 0.0 21.4242 8.33407 -28.8739 0.0 -12.61824 0.0 
  -0.7615899658203125 -3.045780029296875 10.490400390625 -111.021 84.1807 110.627 4.01563 -21.3368 -3.6536 3.46461 31.4136 1.1751 -3.16584 25.4567 -1.28411 23.5708 -76.4129 16.4833 -122.8302 0.0301553 -6.02505 -35.2877 -0.0745993 29.2149 0.0 31.0119 0.0 10.5724 -7.84345 -0.373036 0.0 0.0 0.0 0.0 0.0 0.0 116.723495 -2.67164 2.35787 40.8084 2.66011 -19.6573 0.0 27.616 0.0 -6.20221 -2.21688 7.8343 0.0 0.0 0.0 0.0 0.0 0.0 7.46285 7.02177 24.1669 0.0 -1.73786 0.0 -9.79014 11.23709 5.38951 0.0 -11.17071 0.0 7.17702 4.36977 1.38724 0.0 4.44181 0.0 21.4184 8.36551 -28.8194 0.0 -12.61745 0.0 
  -0.7590779876708984 -3.0486099243164064 10.4902001953125 -110.835 84.1759 110.332 4.10477 -21.3532 -3.5611 3.36651 31.4209 1.15441 -3.12442 25.4418 -1.2859 23.7056 -76.4115 16.6061 -122.7733 0.0422363 -6.08342 -35.333 -0.0994937 29.1867 0.0 30.9053 0.0 10.5656 -7.7433 -0.335686 0.0 0.0 0.0 0.0 0.0 0.0 116.801 -2.66602 2.37828 40.7884 2.65322 -19.7615 0.0 27.5957 0.0 -6.30827 -2.1723 7.94148 0.0 0.0 0.0 0.0 0.0 0.0 7.42856 7.14454 24.3038 0.0 -1.86062 0.0 -9.81146 11.27439 5.32065 0.0 -11.16432 0.0 7.16624 4.39502 1.5256 0.0 4.45087 0.0 21.4394 8.35069 -28.846 0.0 -12.60519 0.0 
  -0.7563960266113281 -3.051180114746094 10.4902001953125 -110.716 84.1689 110.133 4.15226 -21.3831 -3.52362 3.33084 31.4654 1.13251 -3.14636 25.3233 -1.25473 23.6568 -76.3682 16.5184 -122.772 0.0448541 -6.14378 -35.2903 -0.146734 29.2669 0.0 31.0107 0.0 10.5243 -7.85451 -0.496309 0.0 0.0 0.0 0.0 0.0 0.0 116.7951 -2.62466 2.52271 40.8324 2.51362 -19.7887 0.0 27.6369 0.0 -6.02888 -2.26492 7.87989 0.0 0.0 0.0 0.0 0.0 0.0 7.40896 7.21434 24.3651 0.0 -1.90748 0.0 -9.83923 11.27495 5.31475 0.0 -11.180059 0.0 7.15426 4.40685 1.60342 0.0 4.46912 0.0 21.4992 8.34958 -28.8311 0.0 -12.6611 0.0 
  -0.7542980194091797 -3.0531201171875 10.49050048828125 -110.635 84.1636 109.994 4.15395 -21.3909 -3.53673 3.3486 31.4844 1.11976 -3.22756 25.2307 -1.18804 23.658 -76.3631 16.453 -122.782196 0.0426847 -6.16458 -35.2958 -0.148611 29.2947 0.0 31.0106 0.0 10.5408 -7.81704 -0.46955 0.0 0.0 0.0 0.0 0.0 0.0 116.7738 -2.61611 2.60948 40.8716 2.44406 -19.8508 0.0 27.6553 0.0 -6.0303 -2.31091 7.79618 0.0 0.0 0.0 0.0 0.0 0.0 7.40778 7.23009 24.32 0.0 -1.86745 0.0 -9.85988 11.23473 5.40676 0.0 -11.19165 0.0 7.14798 4.41322 1.73609 0.0 4.48695 0.0 21.541 8.32767 -28.8965 0.0 -12.65028 0.0 
  -0.7520379638671875 -3.054259948730469 10.491400146484375 -110.59 84.1749 109.913 4.11746 -21.3877 -3.57925 3.3834 31.5022 1.11629 -3.22594 25.1539 -1.2109 23.6379 -76.4111 16.4429 -122.7962 0.047944 -6.13153 -35.2969 -0.129987 29.3019 0.0 31.0698 0.0 10.5656 -7.89194 -0.523232 0.0 0.0 0.0 0.0 0.0 0.0 116.7283 -2.59498 2.61489 40.9268 2.41603 -19.8703 0.0 27.6232 0.0 -6.10834 -2.22969 7.66722 0.0 0.0 0.0 0.0 0.0 0.0 7.40186 7.20357 24.3456 0.0 -1.76084 0.0 -9.83315 11.20909 5.42712 0.0 -11.206409 0.0 7.12377 4.39891 1.79488 0.0 4.53808 0.0 21.5233 8.324221 -28.9197 0.0 -12.589849 0.0 
  -0.7491539764404297 -3.0548199462890624 10.4925 -110.423 84.2044 109.745 4.05971 -21.3279 -3.63954 3.41612 31.483 1.10924 -3.2961 25.0847 -1.15732 23.8046 -76.4939 16.5688 -122.791306 0.0452391 -6.10984 -35.3425 -0.0706617 29.284 0.0 31.0308 0.0 10.526 -7.84933 -0.545346 0.0 0.0 0.0 0.0 0.0 0.0 116.7375 -2.62058 2.59928 40.9233 2.43042 -19.9003 0.0 27.6017 0.0 -6.16288 -2.1669 7.64629 0.0 0.0 0.0 0.0 0.0 0.0 7.39722 7.1445 24.2682 0.0 -1.57288 0.0 -9.80566 11.15074 5.521 0.0 -11.2544 0.0 7.08488 4.37127 1.78318 0.0 4.64652 0.0 21.5715 8.3033 -28.895 0.0 -12.60547 0.0 
  -0.7468409729003906 -3.054909973144531 10.493599853515626 -110.212 84.2283 109.533 4.00551 -21.2825 -3.6948 3.45074 31.4813 1.10579 -3.24882 25.0064 -1.21487 23.7262 -76.5179 16.5297 -122.8112 0.0313216 -6.02345 -35.3243 0.0107891 29.3002 0.0 31.1024 0.0 10.5778 -7.90078 -0.522265 0.0 0.0 0.0 0.0 0.0 0.0 116.734695 -2.64237 2.56897 40.9193 2.4662 -19.8843 0.0 27.6023 0.0 -5.98975 -2.26161 7.81223 0.0 0.0 0.0 0.0 0.0 0.0 7.39798 7.09678 24.2056 0.0 -1.41228 0.0 -9.78034 11.09709 5.59501 0.0 -11.28147 0.0 7.05694 4.36106 1.83133 0.0 4.71831 0.0 21.5979 8.28353 -28.9253 0.0 -12.60659 0.0 
  -0.7447029876708985 -3.055260009765625 10.494300537109375 -109.91 84.2483 109.229 3.9581 -21.2372 -3.74102 3.48787 31.475 1.10987 -3.27051 24.9768 -1.20557 23.7436 -76.5375 16.4967 -122.8047 0.0715916 -6.0192 -35.347 -0.00487846 29.304 0.0 31.1154 0.0 10.5908 -7.84451 -0.460211 0.0 0.0 0.0 0.0 0.0 0.0 116.7091 -2.66023 2.54056 40.9458 2.47164 -19.8676 0.0 27.609 0.0 -6.02524 -2.26527 7.78089 0.0 0.0 0.0 0.0 0.0 0.0 7.40575 7.05946 24.1465 0.0 -1.25247 0.0 -9.76214 11.02716 5.66384 0.0 -11.29524 0.0 7.0377 4.364 1.85643 0.0 4.78699 0.0 21.6771 8.24917 -28.9261 0.0 -12.65964 0.0 
  -0.7420899963378906 -3.0559698486328126 10.495 -109.656 84.2611 108.957 3.9573 -21.2152 -3.73857 3.47557 31.4859 1.10436 -3.27808 24.9524 -1.18868 23.781 -76.5285 16.4924 -122.8134 0.0695287 -5.9905 -35.3037 0.0361761 29.3562 0.0 31.1782 0.0 10.584 -7.83572 -0.49883 0.0 0.0 0.0 0.0 0.0 0.0 116.68 -2.66185 2.56122 41.0018 2.4346 -19.8913 0.0 27.5991 0.0 -6.02747 -2.28195 7.60033 0.0 0.0 0.0 0.0 0.0 0.0 7.4013 7.04739 24.1566 0.0 -1.14864 0.0 -9.7234 10.99148 5.68774 0.0 -11.329041 0.0 7.01755 4.36874 1.84935 0.0 4.83251 0.0 21.6985 8.26328 -28.9109 0.0 -12.69156 0.0 
  -0.739094009399414 -3.057439880371094 10.4952001953125 -109.514 84.2669 108.791 4.005 -21.2281 -3.68216 3.40271 31.4989 1.09136 -3.25244 24.9611 -1.19334 23.8668 -76.5284 16.5353 -122.7809 0.0835957 -5.95223 -35.2747 0.058352 29.3729 0.0 31.2339 0.0 10.5989 -7.85012 -0.542637 0.0 0.0 0.0 0.0 0.0 0.0 116.6882 -2.66138 2.56182 41.0353 2.40171 -19.9345 0.0 27.6017 0.0 -6.03775 -2.30544 7.46552 0.0 0.0 0.0 0.0 0.0 0.0 7.38871 7.05084 24.2141 0.0 -1.09309 0.0 -9.7066 10.95934 5.6625 0.0 -11.32662 0.0 6.99684 4.38422 1.79361 0.0 4.84225 0.0 21.6955 8.29504 -28.8564 0.0 -12.69762 0.0 
  -0.7358660125732421 -3.0592401123046873 10.49510009765625 -109.409 84.2703 108.644 4.09446 -21.2548 -3.57719 3.27816 31.5206 1.07325 -3.26647 24.9934 -1.15571 23.9793 -76.5163 16.6209 -122.7079 0.0913158 -5.96693 -35.2992 0.0773502 29.3211 0.0 31.187 0.0 10.5775 -7.76459 -0.534394 0.0 0.0 0.0 0.0 0.0 0.0 116.7255 -2.65648 2.61401 41.062 2.33704 -20.0209 0.0 27.5871 0.0 -6.00226 -2.28168 7.39768 0.0 0.0 0.0 0.0 0.0 0.0 7.36324 7.0846 24.2711 0.0 -1.0945 0.0 -9.68576 10.94581 5.65285 0.0 -11.340281 0.0 6.97554 4.40526 1.78533 0.0 4.83774 0.0 21.6752 8.3182 -28.8253 0.0 -12.68752 0.0 
  -0.7333940124511719 -3.0607400512695313 10.49489990234375 -109.408 84.2713 108.625 4.13989 -21.2803 -3.53462 3.21285 31.5464 1.04633 -3.2569 24.9763 -1.14757 23.9813 -76.4903 16.6425 -122.7561 -0.0341851 -5.91288 -35.1927 0.244794 29.4171 0.0 31.248 0.0 10.6735 -7.85412 -0.589223 0.0 0.0 0.0 0.0 0.0 0.0 116.7696 -2.67281 2.64061 41.0329 2.34882 -20.1454 0.0 27.6111 0.0 -5.94107 -2.47399 7.65682 0.0 0.0 0.0 0.0 0.0 0.0 7.34174 7.11098 24.2922 0.0 -1.11806 0.0 -9.69718 10.9381 5.6402 0.0 -11.32422 0.0 6.95973 4.41995 1.7461 0.0 4.82407 0.0 21.6065 8.34744 -28.7962 0.0 -12.62384 0.0 
